<svg height="512" viewBox="0 0 128 128" width="512" xmlns="http://www.w3.org/2000/svg"><g><path d="m78.262 44.485-2.137-7.25h-24.25l-2.137 7.25h-18.023a5.178 5.178 0 0 0 -5.178 5.178v35.924a5.178 5.178 0 0 0 5.178 5.178h64.57a5.178 5.178 0 0 0 5.178-5.178v-35.924a5.178 5.178 0 0 0 -5.178-5.178z" fill="#fc2544"/><circle cx="64" cy="67.61" fill="#fff5f5" r="15.625"/><path d="m34.459 39.11h6.875v5.375h-6.875z" fill="#fd6433"/><path d="m88.375 50.735h6.5v6.5h-6.5z" fill="#ffe99d"/><path d="m54.954 69.359a1.749 1.749 0 0 1 -1.75-1.75 10.808 10.808 0 0 1 10.796-10.796 1.75 1.75 0 0 1 0 3.5 7.3 7.3 0 0 0 -7.3 7.3 1.749 1.749 0 0 1 -1.746 1.746z" fill="#e2e0f4"/></g></svg>