<?xml version="1.0"?>
<svg xmlns="http://www.w3.org/2000/svg" xmlns:xlink="http://www.w3.org/1999/xlink" xmlns:svgjs="http://svgjs.com/svgjs" version="1.1" width="512" height="512" x="0" y="0" viewBox="0 0 512 512" style="enable-background:new 0 0 512 512" xml:space="preserve" class=""><g><ellipse xmlns="http://www.w3.org/2000/svg" cx="256" cy="436" fill="#c0c0c0" rx="128" ry="52" data-original="#e9eef2" style="" class=""/><path xmlns="http://www.w3.org/2000/svg" d="m296 448h-80a8 8 0 0 1 0-16h80a8 8 0 0 1 0 16z" fill="#c3c6c7" data-original="#c3c6c7" style="" class=""/><path xmlns="http://www.w3.org/2000/svg" d="m400 168c0 79.529-144 272-144 272s-144-192.471-144-272a144 144 0 0 1 288 0z" fill="#0042ff" data-original="#eb423f" style="" class=""/><circle xmlns="http://www.w3.org/2000/svg" cx="256" cy="168" fill="#ffffff" r="96" data-original="#ffffff" style="" class=""/><g xmlns="http://www.w3.org/2000/svg" fill="#f7d1b2"><circle cx="256" cy="160" r="40" fill="#f7d1b2" data-original="#f7d1b2" style="" class=""/><path d="m321.78 237.91a95.97 95.97 0 0 1 -131.56 0c14.44-22.91 38.52-37.91 65.78-37.91s51.34 15 65.78 37.91z" fill="#f7d1b2" data-original="#f7d1b2" style="" class=""/></g></g></svg>
