<?xml version="1.0" encoding="utf-8"?>
<!-- Generator: Adobe Illustrator 23.0.1, SVG Export Plug-In . SVG Version: 6.00 Build 0)  -->
<svg version="1.1" id="e937dd5c-1a88-46eb-b274-68931cd56025"
	 xmlns="http://www.w3.org/2000/svg" xmlns:xlink="http://www.w3.org/1999/xlink" x="0px" y="0px" viewBox="0 0 923.8 753.7"
	 style="enable-background:new 0 0 923.8 753.7;" xml:space="preserve">
<style type="text/css">
	.st0{opacity:0.1;fill:#6C63FF;enable-background:new    ;}
	.st1{fill:#3F3D56;}
	.st2{fill:#4CAF50;}
	.st3{opacity:0.1;enable-background:new    ;}
	.st4{fill:#444053;}
	.st5{fill:#FFFFFF;}
	.st6{opacity:0.3;}
	.st7{fill:none;stroke:#444053;stroke-width:3;stroke-miterlimit:10;}
</style>
<title>map</title>
<ellipse transform="matrix(0.7071 -0.7071 0.7071 0.7071 -252.1189 824.4962)" class="st0" cx="869.2" cy="716.6" rx="20" ry="48.5"/>
<ellipse class="st1" cx="872.6" cy="705.7" rx="10.7" ry="14"/>
<ellipse class="st1" cx="872.6" cy="688.5" rx="10.7" ry="14"/>
<ellipse class="st1" cx="872.6" cy="671.4" rx="10.7" ry="14"/>
<ellipse class="st1" cx="872.6" cy="654.2" rx="10.7" ry="14"/>
<ellipse class="st1" cx="872.6" cy="637" rx="10.7" ry="14"/>
<ellipse class="st1" cx="872.6" cy="619.9" rx="10.7" ry="14"/>
<ellipse class="st1" cx="872.6" cy="602.7" rx="10.7" ry="14"/>
<path class="st2" d="M912.8,485.2c1.5-1.9,2.8-3.8,4-5.9l-28.2-4.6l30.5,0.2c5.9-12.9,6.3-27.6,1-40.7l-40.9,21.2l37.7-27.7
	c-14.2-24.6-45.6-33-70.2-18.8c-24.6,14.2-33,45.6-18.8,70.2c1.2,2.1,2.6,4.2,4.1,6.1c-2.3,2.9-4.3,6-5.9,9.4l36.6,19l-39-13.1
	c-5.6,16.5-2.4,34.6,8.3,48.3c-17.6,22.3-13.7,54.6,8.6,72.2c22.3,17.6,54.6,13.7,72.2-8.6c14.7-18.6,14.7-44.9,0-63.6
	C927.5,530.1,927.5,503.8,912.8,485.2L912.8,485.2z"/>
<path class="st3" d="M821,517c0,11.5,3.9,22.7,11,31.8c-17.6,22.3-13.7,54.6,8.6,72.2c22.3,17.6,54.6,13.7,72.2-8.6
	c14.7-18.6,14.7-44.9,0-63.6C919.7,540,821,511.2,821,517z"/>
<polygon class="st4" points="847,0 847,720 603,686 306.4,746.5 304,747 68,682 68,56 313,0 581,56 591.2,53.9 "/>
<polygon class="st5" points="806,39.3 806,683.5 587.7,653.1 322.3,707.3 320.1,707.7 109,649.5 109,89.4 328.2,39.3 568,89.4 
	577.1,87.5 "/>
<polygon class="st3" points="603,686 306.4,746.5 313,0 581,56 591.2,53.9 "/>
<g class="st6">
	<polyline class="st7" points="573.3,138 573.5,347.5 660.5,347.5 660.5,261.5 809.5,261.5 827,239.1 	"/>
	<polyline class="st7" points="89,204.5 412.5,204.5 432.5,195.5 440.5,195.5 440.5,397.5 580.5,397.5 586.5,415.5 586.5,506.5 
		694.5,506.5 694.5,619 	"/>
	<line class="st7" x1="483.2" y1="619" x2="483.2" y2="397.5"/>
	<line class="st7" x1="827" y1="559.7" x2="483.2" y2="559.7"/>
	<line class="st7" x1="740.9" y1="138" x2="740.9" y2="619"/>
	<line class="st7" x1="88" y1="517.1" x2="827" y2="517.1"/>
	<line class="st7" x1="177.9" y1="619" x2="177.9" y2="138"/>
	<line class="st7" x1="349.7" y1="138" x2="349.7" y2="619"/>
	<line class="st7" x1="89" y1="259.5" x2="660.5" y2="261.5"/>
	<line class="st7" x1="255.3" y1="138.9" x2="255.3" y2="619"/>
	<polyline class="st7" points="88,370.8 349.7,370.8 483.2,517.1 	"/>
	<line class="st7" x1="512.1" y1="138" x2="512.1" y2="397.5"/>
	<line class="st7" x1="483.2" y1="444" x2="827" y2="444"/>
</g>
<polygon class="st2" points="586,442 485,442 485,398 580.5,397.5 586.5,414.5 "/>
<path class="st2" d="M536,214c-30.5,0-55.3,24.7-55.3,55.3C480.7,299.8,536,399,536,399s55.3-99.1,55.3-129.7
	C591.3,238.8,566.5,214,536,214z M536,292.9c-13.4,0-24.3-10.9-24.3-24.3c0-13.4,10.9-24.3,24.3-24.3c13.4,0,24.3,10.9,24.3,24.3
	C560.3,282,549.4,292.9,536,292.9L536,292.9z"/>
<path class="st3" d="M536,214c-30.5,0-55.3,24.7-55.3,55.3C480.7,299.8,536,399,536,399s55.3-99.1,55.3-129.7
	C591.3,238.8,566.5,214,536,214z M536,292.9c-13.4,0-24.3-10.9-24.3-24.3c0-13.4,10.9-24.3,24.3-24.3c13.4,0,24.3,10.9,24.3,24.3
	C560.3,282,549.4,292.9,536,292.9L536,292.9z"/>
<path class="st2" d="M536,222c-30.5,0-55.3,24.7-55.3,55.3C480.7,307.8,536,407,536,407s55.3-99.1,55.3-129.7
	C591.3,246.8,566.5,222,536,222z M536,300.9c-13.4,0-24.3-10.9-24.3-24.3s10.9-24.3,24.3-24.3c13.4,0,24.3,10.9,24.3,24.3
	C560.3,290,549.4,300.9,536,300.9L536,300.9z"/>
<ellipse transform="matrix(0.9184 -0.3955 0.3955 0.9184 -248.363 262.2462)" class="st0" cx="511.8" cy="733.4" rx="33.5" ry="13.8"/>
<ellipse class="st1" cx="511.4" cy="728" rx="7.4" ry="9.7"/>
<ellipse class="st1" cx="511.4" cy="716.1" rx="7.4" ry="9.7"/>
<ellipse class="st1" cx="511.4" cy="704.3" rx="7.4" ry="9.7"/>
<ellipse class="st1" cx="511.4" cy="692.5" rx="7.4" ry="9.7"/>
<ellipse class="st1" cx="511.4" cy="680.6" rx="7.4" ry="9.7"/>
<ellipse class="st1" cx="511.4" cy="668.8" rx="7.4" ry="9.7"/>
<ellipse class="st1" cx="511.4" cy="657" rx="7.4" ry="9.7"/>
<path class="st2" d="M483.7,576c-1-1.3-1.9-2.6-2.8-4l19.4-3.2l-21,0.2c-4.1-8.9-4.3-19-0.7-28.1l28.2,14.6l-26-19.1
	c9.8-16.9,31.5-22.7,48.4-12.9c16.9,9.8,22.7,31.5,12.9,48.4c-0.8,1.5-1.8,2.9-2.8,4.2c1.6,2,2.9,4.2,4,6.5l-25.2,13.1l26.9-9
	c3.8,11.3,1.7,23.9-5.7,33.3c12.1,15.4,9.4,37.7-5.9,49.8c-15.4,12.1-37.7,9.4-49.8-5.9c-10.1-12.9-10.1-31,0-43.8
	C473.6,607,473.6,588.9,483.7,576L483.7,576z"/>
<path class="st3" d="M547,597.9c0,7.9-2.7,15.7-7.6,21.9c12.1,15.4,9.4,37.7-5.9,49.8c-15.4,12.1-37.7,9.4-49.8-5.9
	c-10.1-12.9-10.1-31,0-43.8C478.9,613.8,547,593.9,547,597.9z"/>
<ellipse transform="matrix(0.7071 -0.7071 0.7071 0.7071 -477.027 237.5162)" class="st0" cx="48.2" cy="694.6" rx="20" ry="48.5"/>
<ellipse class="st1" cx="51.6" cy="683.7" rx="10.7" ry="14"/>
<ellipse class="st1" cx="51.6" cy="666.5" rx="10.7" ry="14"/>
<ellipse class="st1" cx="51.6" cy="649.4" rx="10.7" ry="14"/>
<ellipse class="st1" cx="51.6" cy="632.2" rx="10.7" ry="14"/>
<ellipse class="st1" cx="51.6" cy="615" rx="10.7" ry="14"/>
<ellipse class="st1" cx="51.6" cy="597.9" rx="10.7" ry="14"/>
<ellipse class="st1" cx="51.6" cy="580.7" rx="10.7" ry="14"/>
<path class="st2" d="M91.8,463.2c1.5-1.9,2.8-3.8,4-5.9l-28.2-4.6l30.5,0.2c5.9-12.9,6.3-27.6,1-40.7l-40.9,21.2l37.7-27.7
	c-14.2-24.6-45.6-33-70.2-18.8s-33,45.6-18.8,70.2c1.2,2.1,2.6,4.2,4.1,6.1c-2.3,2.9-4.3,6-5.9,9.4l36.6,19l-39-13.1
	c-5.6,16.5-2.4,34.6,8.3,48.3c-17.6,22.3-13.7,54.6,8.6,72.2c22.3,17.6,54.6,13.7,72.2-8.6c14.7-18.6,14.7-44.9,0-63.6
	C106.5,508.1,106.5,481.8,91.8,463.2L91.8,463.2z"/>
<path class="st3" d="M0,495c0,11.5,3.9,22.7,11,31.8c-17.6,22.3-13.7,54.6,8.6,72.2c22.3,17.6,54.6,13.7,72.2-8.6
	c14.7-18.6,14.7-44.9,0-63.6C98.7,518,0,489.2,0,495z"/>
</svg>
