<svg id="Capa_1" enable-background="new 0 0 512 512" height="512" viewBox="0 0 512 512" width="512" xmlns="http://www.w3.org/2000/svg"><g><path d="m414.5 52.5v392l15 13 15-13v-392z" fill="#424247"/><path d="m466.876 20.661c-.908-7.415-7.216-13.161-14.876-13.161h-30l22.5 77h30z" fill="#eb653e"/><path d="m436.876 20.661c-.908-7.415-7.216-13.161-14.876-13.161h-15c-7.66 0-13.968 5.746-14.876 13.161l-7.624 63.839h60z" fill="#ec9345"/><path d="m474.5 474.5h-30l30 30h30c0-16.569-13.431-30-30-30z" fill="#424247"/><path d="m444.5 474.5v-30h-30v30h-30c-16.569 0-30 13.431-30 30h120c0-16.569-13.431-30-30-30z" fill="#58585e"/><path d="m67.5 52.5v392l15 13 15-13v-392z" fill="#424247"/><path d="m119.876 20.661c-.908-7.415-7.216-13.161-14.876-13.161h-30l22.5 77h30z" fill="#eb653e"/><path d="m89.876 20.661c-.908-7.415-7.216-13.161-14.876-13.161h-15c-7.66 0-13.968 5.746-14.876 13.161l-7.624 63.839h60z" fill="#ec9345"/><path d="m127.5 474.5h-30l30 30h30c0-16.569-13.431-30-30-30z" fill="#424247"/><path d="m97.5 474.5v-30h-30v30h-30c-16.569 0-30 13.431-30 30h120c0-16.569-13.431-30-30-30z" fill="#58585e"/><path d="m474.5 279.5-60 105h60l30-105z" fill="#e20c0c"/><path d="m383.833 279.5-60.333 15-60.333-15h-120.667l-105 30-30 105h120.667l60.333-15 60.333 15h120.667l105-30v-105z" fill="#ea3838"/><path d="m263.167 279.5-135 135h120.666l135-135z" fill="#fff"/><path d="m7.5 279.5v135l135-135z" fill="#fff"/><path d="m474.5 309.5-30 52.5 30 52.5h30v-135z" fill="#f6f6a8"/><path d="m369.5 414.5h105v-105z" fill="#fff"/><path d="m474.5 114.5-60 105h60l30-105z" fill="#e20c0c"/><path d="m383.833 114.5-60.333 15-60.333-15h-120.667l-105 30-30 105h120.667l60.333-15 60.333 15h120.667l105-30v-105z" fill="#ea3838"/><path d="m263.167 114.5-135 135h120.666l135-135z" fill="#fff"/><path d="m7.5 114.5v135l135-135z" fill="#fff"/><path d="m474.5 144.5-30 52.5 30 52.5h30v-135z" fill="#f6f6a8"/><path d="m369.5 249.5h105v-105z" fill="#fff"/><path d="m504.5 257c4.143 0 7.5-3.358 7.5-7.5v-135c0-4.142-3.357-7.5-7.5-7.5h-52.5v-15h22.5c2.145 0 4.186-.917 5.609-2.521s2.092-3.739 1.838-5.868l-7.624-63.839c-1.382-11.282-10.977-19.772-22.323-19.772h-45c-11.346 0-20.941 8.49-22.323 19.772l-7.624 63.839c-.254 2.129.415 4.265 1.838 5.868 1.423 1.604 3.464 2.521 5.609 2.521h22.5v15h-302v-15h22.5c2.144 0 4.186-.917 5.609-2.521s2.092-3.739 1.838-5.868l-7.624-63.839c-1.382-11.282-10.977-19.772-22.323-19.772h-45c-11.346 0-20.941 8.49-22.323 19.772l-7.624 63.839c-.254 2.129.415 4.265 1.838 5.868s3.465 2.521 5.609 2.521h22.5v15h-52.5c-4.142 0-7.5 3.358-7.5 7.5v135c0 4.142 3.358 7.5 7.5 7.5h52.5v15h-52.5c-4.142 0-7.5 3.358-7.5 7.5v135c0 4.142 3.358 7.5 7.5 7.5h52.5v45h-22.5c-20.678 0-37.5 16.822-37.5 37.5 0 4.142 3.358 7.5 7.5 7.5h150c4.142 0 7.5-3.358 7.5-7.5 0-20.678-16.822-37.5-37.5-37.5h-22.5v-45h332v52.5c0 4.142 3.357 7.5 7.5 7.5h30c9.778 0 18.119 6.27 21.215 15h-132.43c3.096-8.73 11.437-15 21.215-15h30c4.143 0 7.5-3.358 7.5-7.5v-30c0-4.142-3.357-7.5-7.5-7.5s-7.5 3.358-7.5 7.5v22.5h-22.5c-20.678 0-37.5 16.822-37.5 37.5 0 4.142 3.357 7.5 7.5 7.5h150c4.143 0 7.5-3.358 7.5-7.5 0-20.678-16.822-37.5-37.5-37.5h-22.5v-45h52.5c4.143 0 7.5-3.358 7.5-7.5v-135c0-4.142-3.357-7.5-7.5-7.5h-52.5v-15zm-116.893-15 109.393-109.393v109.393zm-142.547 45-120 120h-99.454l120-120zm21.214 0h99.452l-119.999 120h-99.454zm120.666 0h99.453l-120 120h-99.453zm-281.94-15v-15h302v15zm161.94-30 120-120h99.453l-120 120zm-21.213 0h-99.454l120.001-120h99.452zm-120.667 0h-99.454l120-120h99.454zm274.508-220.427c.459-3.747 3.655-6.573 7.432-6.573h45c3.773 0 6.965 2.819 7.43 6.56l6.621 55.44h-73.102zm22.432 70.427h15v15h-15zm-369.432-70.427c.459-3.747 3.654-6.573 7.432-6.573h45c3.773 0 6.965 2.819 7.43 6.56l6.621 55.44h-73.102zm22.432 70.427h15v15h-15zm49.394 30-109.394 109.394v-109.394zm-49.394 135h15v15h-15zm49.394 30-109.394 109.394v-109.394zm-26.894 195h30c9.778 0 18.12 6.27 21.215 15h-132.43c3.095-8.73 11.437-15 21.215-15h30c4.142 0 7.5-3.358 7.5-7.5v-52.5h15v52.5c0 4.142 3.358 7.5 7.5 7.5zm290.107-75 109.393-109.393v109.393zm49.393-135h-15v-15h15z"/></g></svg>