<svg height="512pt" viewBox="0 0 512 512" width="512pt" xmlns="http://www.w3.org/2000/svg"><path d="m358.382812 0h-204.765624c-2.339844 0-4.585938.929688-6.242188 2.585938l-144.789062 144.789062c-1.65625 1.65625-2.585938 3.902344-2.585938 6.242188v204.765624c0 2.339844.929688 4.585938 2.585938 6.242188l144.789062 144.789062c1.65625 1.65625 3.902344 2.585938 6.242188 2.585938h204.765624c2.339844 0 4.585938-.929688 6.242188-2.585938l144.789062-144.789062c1.65625-1.65625 2.585938-3.902344 2.585938-6.242188v-204.765624c0-2.339844-.929688-4.585938-2.585938-6.242188l-144.789062-144.789062c-1.65625-1.65625-3.902344-2.585938-6.242188-2.585938zm0 0" fill="#ecf0f1"/><path d="m163.292969 475.394531-126.691407-126.695312c-.828124-.828125-1.292968-1.953125-1.292968-3.121094v-179.15625c0-1.167969.464844-2.292969 1.292968-3.121094l126.691407-126.695312c.828125-.828125 1.949219-1.292969 3.121093-1.296875h179.171876c1.171874.003906 2.292968.46875 3.121093 1.296875l126.691407 126.695312c.828124.828125 1.292968 1.953125 1.292968 3.121094v179.15625c0 1.167969-.464844 2.292969-1.292968 3.121094l-126.691407 126.695312c-.828125.828125-1.949219 1.292969-3.121093 1.296875h-179.171876c-1.171874-.003906-2.292968-.46875-3.121093-1.296875zm0 0" fill="#c03a2b"/><g fill="#ecf0f1"><path d="m110.34375 326.621094h-13.242188c-19.492187-.019532-35.289062-15.816406-35.308593-35.3125 0-4.875 3.953125-8.824219 8.828125-8.824219s8.828125 3.949219 8.828125 8.824219c.011719 9.746094 7.90625 17.644531 17.652343 17.65625h13.242188c12.1875 0 22.070312-9.878906 22.070312-22.066406 0-12.191407-9.882812-22.070313-22.070312-22.070313h-8.828125c-21.9375 0-39.722656-17.785156-39.722656-39.726563 0-21.9375 17.785156-39.722656 39.722656-39.722656h13.242187c19.492188.019532 35.289063 15.816406 35.3125 35.3125 0 4.875-3.953124 8.824219-8.828124 8.824219s-8.828126-3.949219-8.828126-8.824219c-.011718-9.746094-7.910156-17.644531-17.65625-17.65625h-13.242187c-12.1875 0-22.066406 9.878906-22.066406 22.066406 0 12.191407 9.878906 22.070313 22.066406 22.070313h8.828125c21.941406 0 39.726562 17.785156 39.726562 39.726563 0 21.9375-17.785156 39.722656-39.726562 39.722656zm0 0"/><path d="m238.34375 203.035156h-70.621094c-4.875 0-8.824218-3.953125-8.824218-8.828125s3.949218-8.828125 8.824218-8.828125h70.621094c4.875 0 8.828125 3.953125 8.828125 8.828125s-3.953125 8.828125-8.828125 8.828125zm0 0"/><path d="m203.035156 326.621094c-4.875 0-8.828125-3.953125-8.828125-8.828125v-123.585938c0-4.875 3.953125-8.828125 8.828125-8.828125s8.828125 3.953125 8.828125 8.828125v123.585938c0 4.875-3.953125 8.828125-8.828125 8.828125zm0 0"/><path d="m300.136719 326.621094c-24.363281-.027344-44.109375-19.773438-44.136719-44.136719v-52.96875c0-24.375 19.761719-44.136719 44.136719-44.136719 24.378906 0 44.140625 19.761719 44.140625 44.136719v52.96875c-.03125 24.363281-19.773438 44.109375-44.140625 44.136719zm0-123.585938c-14.617188.015625-26.464844 11.863282-26.480469 26.480469v52.96875c0 14.625 11.855469 26.480469 26.480469 26.480469 14.628906 0 26.484375-11.855469 26.484375-26.480469v-52.96875c-.015625-14.617187-11.863282-26.464844-26.484375-26.480469zm0 0"/><path d="m370.757812 326.621094c-4.875 0-8.828124-3.953125-8.828124-8.828125v-114.757813c.011718-9.746094 7.910156-17.644531 17.65625-17.65625h30.898437c21.9375 0 39.722656 17.785156 39.722656 39.722656 0 21.941407-17.785156 39.726563-39.722656 39.726563h-30.898437v52.964844c0 4.875-3.953126 8.828125-8.828126 8.828125zm8.828126-79.449219h30.898437c12.1875 0 22.066406-9.878906 22.066406-22.070313 0-12.1875-9.878906-22.066406-22.066406-22.066406h-30.898437zm0 0"/></g></svg>