<?xml version="1.0"?>
<svg xmlns="http://www.w3.org/2000/svg" xmlns:xlink="http://www.w3.org/1999/xlink" xmlns:svgjs="http://svgjs.com/svgjs" version="1.1" width="512" height="512" x="0" y="0" viewBox="0 0 512 511" style="enable-background:new 0 0 512 512" xml:space="preserve" class=""><g><path xmlns="http://www.w3.org/2000/svg" d="m268.980469 106.824219 76.25 131.953125c39.703125 68.703125-9.878907 154.621094-89.230469 154.621094s-128.933594-85.917969-89.230469-154.621094l76.25-131.953125c5.769531-9.988281 20.191407-9.988281 25.960938 0zm0 0" fill="#0088c8" data-original="#d5f1fe" style="" class=""/><path xmlns="http://www.w3.org/2000/svg" d="m345.289062 238.878906-76.300781-132.039062c-5.769531-9.992188-20.207031-9.992188-25.976562 0l-7.011719 12.128906 69.289062 119.910156c36.234376 62.699219-1.96875 139.691406-69.289062 152.621094 6.417969 1.234375 13.09375 1.898438 20 1.898438 79.371094 0 128.976562-85.84375 89.289062-154.519532zm0 0" fill="#47b2e4" data-original="#93dcfc" style="" class=""/><path xmlns="http://www.w3.org/2000/svg" d="m256 .5c-141.386719 0-256 114.515625-256 255.773438 0 141.261718 114.613281 255.773437 256 255.773437s256-114.511719 256-255.773437c0-141.257813-114.613281-255.773438-256-255.773438zm-216.117188 255.773438c0-52.304688 18.613282-100.261719 49.585938-137.625l304.28125 304.011718c-37.398438 30.941406-85.398438 49.539063-137.75 49.539063-119.359375 0-216.117188-96.671875-216.117188-215.925781zm382.191407 138.167968-304.363281-304.09375c37.476562-31.214844 85.683593-50 138.289062-50 119.359375 0 216.117188 96.671875 216.117188 215.925782 0 52.558593-18.800782 100.726562-50.042969 138.167968zm0 0" fill="#e5554e" data-original="#e5554e" style="" class=""/><path xmlns="http://www.w3.org/2000/svg" d="m256 .5c-6.710938 0-13.359375.261719-19.941406.769531 130.183594 10.019531 233.082031 117.335938 235.984375 249.285157.097656 3.71875.101562 7.441406.003906 11.164062-2.765625 132.074219-105.710937 239.53125-235.988281 249.5625 6.578125.503906 13.230468.765625 19.941406.765625 141.386719 0 256-114.511719 256-255.773437 0-141.257813-114.613281-255.773438-256-255.773438zm0 0" fill="#c62430" data-original="#c62430" style="" class=""/></g></svg>
